<?xml version="1.0" encoding="UTF-8"?>
<svg id="Calque_1" data-name="Calque 1" xmlns="http://www.w3.org/2000/svg" viewBox="0 0 804 798">
  <path d="M559.33,482.51c-.72,.36-1.41,.1-1.41,.1l-.36-.78s1.84-2.06,2.76-6.38c0,0,.76,3.89-.99,7.07Z"/>
  <path d="M455.03,269.62s21.92-.4,29.82-14.91c12.9-23.69,28.85-65.2,62.29-91.07,0,0-44.91-9.77-49.42,32.13-1.13,6.39-6.76,4.89-6.76,4.89,0,0-31.38-28.19-34.76,15.78,.02-.31,1.59-1.07,1.82-1.21,1.41-.85,2.91-1.58,4.48-2.09,3.91-1.28,8.07-.83,10.58,2.75,2.17,3.11,2.84,7.06,2.24,10.76-.64,3.95-2.7,7.19-5.49,9.97-1.52,1.52-3.23,2.9-5.14,3.91-4.41,2.32-9.2,1.84-13.23-1.04-1.75-1.25-3.27-2.8-4.63-4.45-.51-.62-4.87-7.1-4.76-7.14,0,0-34.81,14.09-33.96-15.64,0,0,.99-17.05,15.78-17.05s14.94,12.12,14.94,12.12c0,0,23.82-29.03-26.92-29.03,0,0-3.38-4.65,5.36-14.8,0,0,4.08-27.58-13.92-32.57-18.04,4.93-13.95,32.55-13.95,32.55,8.74,10.15,5.36,14.8,5.36,14.8-50.73,0-26.92,29.03-26.92,29.03,0,0,.14-12.12,14.94-12.12s15.78,17.05,15.78,17.05c.85,29.74-33.96,15.64-33.96,15.64-.02,0-1.89,3.17-2.09,3.47-3.24,4.96-8.06,10.62-14.52,10.72-.93,.02-1.86-.09-2.77-.29-2.68-.61-5.08-2.11-7.11-3.92s-4-3.96-5.18-6.4c-2.49-5.14-2.61-12.43,1.62-16.75,2.74-2.8,6.73-2.64,10.18-1.38,1.43,.52,2.8,1.21,4.1,2,.21,.13,1.62,.82,1.64,1.1-3.38-43.97-34.76-15.78-34.76-15.78,0,0-5.64,1.5-6.76-4.89-4.51-41.9-49.42-32.13-49.42-32.13,36.89,28.54,57.3,95.15,58.66,97.86,1.36,4.07,5.42,1.36,5.42,1.36,0,0,32.81-9.91,60.99-6.78,22.02,2.45,35.24,12.2,70.47,13.55Zm-51.09-13.94c-.84-.05-9.38-.81-9.38-11.62s8.71-12.31,9.29-12.39h0s9.33,1.03,9.33,12.4c0,10.35-7.84,11.49-9.24,11.61Z"/>
  <path d="M564.1,489.32c-.03-.11,.02-.21,.06-.61,.05-.53,.22-1.07,.3-1.6,.32-2.21,.3-4.47-.05-6.67-.24-1.52-.65-3.01-1.2-4.44-.21-.54-.7-2.48-1.26-2.69-.81-.31-1.83,1.36-2.19,1.85-.96,1.31-1.78,2.71-2.61,4.1-.13,.22-1.1,2.23-1.41,2.18-.93-.15,.05-12.1-2.38-12.99-.06-.02-.06-.11-.09-.17-.65,.23-1.29,1.38-1.69,1.88-.93,1.16-1.83,2.33-2.8,3.46-1.11,1.31-2.26,2.58-3.45,3.82-.6,.62-1.21,1.22-1.83,1.82-.5,.47-1.29,1.54-1.96,1.72-1.17,.32-3.37-.79-4.54-1.09-1.79-.46-3.59-.88-5.4-1.25-7.84-1.61-16.3-2.02-22.8,6.3,19.26,8.81,33.63,20.35,30.16,46.02,13.12-8,21.65-16.91,26.73-28.84,1.38-3.23,2.14-7.16,.31-10.38-.43-.76-1.07-1.28-1.57-1.97-.21-.28-.29-.38-.31-.47Zm-3.04-12.52s0,0,0,0"/>
  <path d="M575.9,401.9c3.63-.11,5.84,.99,7.37-2.76,1.6-3.93-.22-5.81-3-8.24-16.98-14.81-34.01-29.55-51.03-44.31-3.17-2.75-7.71-5.25-8.03-9.37-.89-11.53-9.87-16.47-17.03-22.97-6.22-5.64-12.73-10.97-18.87-16.7-10.18-9.52-21.7-14.09-35.52-13.87-17.75,.28-34.78-4.49-51.99-7.83-20.17-3.91-40.36-4.99-60.11,1.24-59.92,18.9-85.09,90.88-85.09,90.88,21.59-16.77,55.65-48.41,79.76-54.58,11.37-2.91,23.05-4.57,34.77-4.96,11.02-.37,23.77-.57,34.48,2.39-13.06,3.4-25.53,6.75-37.57,13.14-11.69,6.2-22.42,14.25-31.41,23.99-15.41,16.7-25.51,38.5-27.42,61.2-1.41,16.76,.32,32.48,7.65,47.85,7.04,14.78,17.71,27.48,29.14,39.07,13.67,13.86,28.56,26.54,40.89,41.69,13.01,15.99,22.79,33.42,22.89,54.84,1.03,1.14-.84,2-1.37,1.2-7.15-11.64-14.69-22.96-25.22-31.94-14.79-12.62-31.38-22.59-47.81-32.84-9.66-6.03-19.38-11.58-27.49-19.72-7.64-7.66-13.75-16.84-17.8-26.87-10.05-24.92-10.82-55.62-3.18-81.16,5.24-17.54,12.81-34.34,21.59-50.38-29.03,20.36-45.17,48.63-49.43,86.95-5.38-13.29-3.72-24.28-4.65-36.3-21,35.3-15.32,83.9,12.02,112.04,12.04,12.39,25.96,22.48,39.84,32.61,23.73,17.32,48.92,32.73,69.98,53.54,44.57,39.68,1.53,91.88,26.19,72.11,56.47-45.28,38.82-124.51,18.42-152.91-15.82-22.01-56.86-70.03-68.57-88.47-9.07-14.29-11.85-28.29-5.5-44.35,2.91-7.36,6.92-14.29,11.82-20.51,4.43-5.63,10.46-12.86,16.99-16.04,.14,1.05-.4,1.38-.83,2.34-4.16,9.34-7.02,18.05-6.5,28.51,.82,16.41,8.92,31.37,19.58,43.52,21.48,25.18,73,74,79,130,1.86,12.25,4.28,54.43-22.94,89.15-4.84,6.18,14.82-4.54,20.98-9.58,63.93-46.27,36.1-119.33,15.68-151.69-10.42-16.51-23.09-31.7-34.98-47.14-8.31-10.8-16.69-21.58-24.47-32.78-8.67-12.48-18.44-23.08-18.56-39.33-.11-14.52,6.73-27.52,18.43-35.82,5.96-4.22,12.99-6.95,20.26-7.69,2.23-.23,4.49-.28,6.72,.03,3.19,.44-.88,2.24-1.97,2.84-3.61,2.01-7.27,3.95-10.66,6.31-14.9,10.36-18.81,24.43-9.53,39.7,11.61,19.1,27.46,32.79,51.49,33.06,10.9,.12,21.79,.02,34.08,.02,0,0-1.06,1.95-1.22,2.14-.53,.64-1.18,1.17-1.88,1.6-2.41,1.48-5.5,1.83-8.25,2.17-3.13,.39-6.28,.2-9.42,.33-6.1,.24-11.88,2.48-15.02,8.04-1.08,1.92-1.66,4.15-1.43,6.34,.19,1.78,.9,3.46,1.73,5.05,.93,1.76,2.01,3.44,3.24,5.01,1.16,1.48,2.55,2.67,3.8,4.03,12.14,13.06,33.04,17.15,53.19,15.13,.07,5.16-.28,11.31-1.68,17.1,0,0,.07-.03,.18-.09,1.28-.62,9.78-5.18,15.06-18.08,3.38,.03,6.77,.26,10.11,.52,2.71,.21,5.15,.03,7.37-.47-.75,2.5-2.79,8.99-4.66,11.69,3.99,2.1,13.1-9.65,17.02-20.05,1.58-2.1,2.96-4.48,4.2-7.07,5.43-11.41,2.44-17.2-10.07-19.25-7.76-1.27-14.46-3.51-18.65-13.2,9.15,0,17.04,.16,24.92-.07Zm-66.08-31.71c-21.7-14.06-43.67-18.2-63.12-24.45-3.25-2.05-3.69-3.61,1.24-4.23,13.25,1.13,26.24,1.26,38.8,.08,1.34-.13,3.72,.99,3.86,1.73,2.8,15.34,14.68,17.7,20.55,25.43,.81,1.49,.51,2.09-1.33,1.44Z"/>
</svg>